<?xml version="1.0" encoding="UTF-8"?>
<svg width="490px" height="470px" viewBox="0 0 490 470" version="1.1" xmlns="http://www.w3.org/2000/svg" xmlns:xlink="http://www.w3.org/1999/xlink">
    <!-- Generator: Sketch 53.1 (72631) - https://sketchapp.com -->
    <title>logout</title>
    <desc>Created with Sketch.</desc>
    <g id="Page-1" stroke="none" stroke-width="1" fill="none" fill-rule="evenodd">
        <g id="logout" fill="#696969" fill-rule="nonzero">
            <path d="M474.023036,250.658966 L165.107394,250.658966 C156.287363,250.658966 149.129133,243.500736 149.129133,234.680705 C149.129133,225.860674 156.287363,218.702444 165.107394,218.702444 L474.023036,218.702444 C482.843067,218.702444 490.001297,225.860674 490.001297,234.680705 C490.001297,243.500736 482.843067,250.658966 474.023036,250.658966 Z" id="Path"></path>
            <path d="M250.327386,335.875056 C246.235296,335.875056 242.147109,334.322481 239.034157,331.190024 L153.818067,245.973934 C147.576559,239.728525 147.576559,229.60948 153.818067,223.367971 L239.034157,138.151881 C245.275665,131.910373 255.39471,131.910373 261.640119,138.151881 C267.881627,144.393389 267.881627,154.512434 261.640119,160.753942 L187.713356,234.680705 L261.640119,308.607468 C267.881627,314.848976 267.881627,324.96802 261.640119,331.209529 C258.507662,334.322481 254.415574,335.875056 250.327386,335.875056 L250.327386,335.875056 Z" id="Path"></path>
            <path d="M234.349125,469.02983 C105.138204,469.02983 0,363.891626 0,234.680705 C0,105.469784 105.138204,0.331579869 234.349125,0.331579869 C331.303151,0.331579869 416.905435,58.6623748 452.462527,148.953591 C455.700308,157.153373 451.651131,166.422012 443.45135,169.679299 C435.247667,172.878072 425.979028,168.891309 422.721741,160.648617 C392.021323,82.6726756 318.075055,32.2881014 234.349125,32.2881014 C122.754861,32.2881014 31.9565215,123.090341 31.9565215,234.680705 C31.9565215,346.271069 122.754861,437.073308 234.349125,437.073308 C318.075055,437.073308 392.021323,386.688734 422.721741,308.736199 C425.959522,300.489607 435.228162,296.506743 443.45135,299.701616 C451.651131,302.939397 455.700308,312.227542 452.462527,320.431225 C416.905435,410.699035 331.303151,469.02983 234.349125,469.02983 Z" id="Path"></path>
        </g>
    </g>
</svg>