<?xml version="1.0" encoding="UTF-8"?>
<svg width="92px" height="92px" viewBox="0 0 92 92" version="1.1" xmlns="http://www.w3.org/2000/svg" xmlns:xlink="http://www.w3.org/1999/xlink">
    <!-- Generator: Sketch 53.1 (72631) - https://sketchapp.com -->
    <title>Group 3</title>
    <desc>Created with Sketch.</desc>
    <g id="Page-1" stroke="none" stroke-width="1" fill="none" fill-rule="evenodd">
        <g id="Login-Page" transform="translate(-376.000000, -1077.000000)" fill="#E81D61">
            <g id="Group-3" transform="translate(376.000000, 1077.000000)">
                <rect id="Rectangle" opacity="0.201474144" x="0" y="0" width="92" height="92" rx="18"></rect>
                <g id="settings" transform="translate(21.000000, 21.000000)" fill-rule="nonzero">
                    <path d="M48.2142857,21.4285714 L42.5,21.4285714 C42.0535714,19.1071429 41.1607143,17.0535714 39.9107143,15.1785714 L43.9285714,11.1607143 C44.6428571,10.4464286 44.6428571,9.375 43.9285714,8.66071429 L41.4285714,6.16071429 C40.7142857,5.44642857 39.6428571,5.44642857 38.9285714,6.16071429 L34.8214286,10.0892857 C32.9464286,8.83928571 30.8035714,7.94642857 28.5714286,7.5 L28.5714286,1.78571429 C28.5714286,0.803571429 27.7678571,0 26.7857143,0 L23.2142857,0 C22.2321429,0 21.4285714,0.803571429 21.4285714,1.78571429 L21.4285714,7.5 C19.1071429,7.94642857 17.0535714,8.83928571 15.1785714,10.0892857 L11.1607143,6.07142857 C10.4464286,5.35714286 9.375,5.35714286 8.66071429,6.07142857 L6.16071429,8.57142857 C5.44642857,9.28571429 5.44642857,10.3571429 6.16071429,11.0714286 L10.1785714,15.0892857 C8.92857143,16.9642857 8.03571429,19.1071429 7.58928571,21.3392857 L1.78571429,21.3392857 C0.803571429,21.3392857 0,22.1428571 0,23.125 L0,26.6964286 C0,27.6785714 0.803571429,28.4821429 1.78571429,28.4821429 L7.5,28.4821429 C7.94642857,30.8035714 8.83928571,32.8571429 10.0892857,34.7321429 L6.07142857,38.75 C5.35714286,39.4642857 5.35714286,40.5357143 6.07142857,41.25 L8.57142857,43.75 C9.28571429,44.4642857 10.3571429,44.4642857 11.0714286,43.75 L15.0892857,39.7321429 C16.9642857,40.9821429 19.1071429,41.875 21.3392857,42.3214286 L21.3392857,48.2142857 C21.3392857,49.1964286 22.1428571,50 23.125,50 L26.6964286,50 C27.6785714,50 28.4821429,49.1964286 28.4821429,48.2142857 L28.4821429,42.5 C30.8035714,42.0535714 32.8571429,41.1607143 34.7321429,39.9107143 L38.75,43.9285714 C39.4642857,44.6428571 40.5357143,44.6428571 41.25,43.9285714 L43.75,41.4285714 C44.4642857,40.7142857 44.4642857,39.6428571 43.75,38.9285714 L39.9107143,34.8214286 C41.1607143,32.9464286 42.0535714,30.8035714 42.5,28.5714286 L48.2142857,28.5714286 C49.1964286,28.5714286 50,27.7678571 50,26.7857143 L50,23.2142857 C50,22.2321429 49.1964286,21.4285714 48.2142857,21.4285714 Z M25,35.7142857 C19.1071429,35.7142857 14.2857143,30.8928571 14.2857143,25 C14.2857143,19.1071429 19.1071429,14.2857143 25,14.2857143 C30.8928571,14.2857143 35.7142857,19.1071429 35.7142857,25 C35.7142857,30.8928571 30.8928571,35.7142857 25,35.7142857 Z" id="Shape"></path>
                </g>
            </g>
        </g>
    </g>
</svg>