<?xml version="1.0" encoding="UTF-8"?>
<svg width="92px" height="92px" viewBox="0 0 92 92" version="1.1" xmlns="http://www.w3.org/2000/svg" xmlns:xlink="http://www.w3.org/1999/xlink">
    <!-- Generator: Sketch 53.1 (72631) - https://sketchapp.com -->
    <title>Group 2</title>
    <desc>Created with Sketch.</desc>
    <g id="Page-1" stroke="none" stroke-width="1" fill="none" fill-rule="evenodd">
        <g id="Login-Page" transform="translate(-376.000000, -1198.000000)" fill="#E81D61">
            <g id="Group-2" transform="translate(376.000000, 1198.000000)">
                <rect id="Rectangle" opacity="0.2" x="0" y="0" width="92" height="92" rx="18"></rect>
                <g id="help(1)" transform="translate(46.000000, 46.000000) rotate(45.000000) translate(-46.000000, -46.000000) translate(22.000000, 22.000000)" fill-rule="nonzero">
                    <g id="Group">
                        <path d="M28.204987,0.472363636 L28.204987,12.1598961 C31.7672727,13.4301818 34.5698182,16.2328831 35.8401039,19.795013 L47.5276364,19.795013 C45.777974,10.0252987 37.9747013,2.22202597 28.204987,0.472363636 L28.204987,0.472363636 Z" id="Path"></path>
                        <path d="M36.4734545,22.5983377 C36.525974,23.0646234 36.6151169,23.52 36.6151169,24 C36.6151169,24.48 36.525974,24.9353766 36.4734545,25.4016623 L47.851013,25.4016623 C47.8784416,24.9352208 47.9220779,24.4731429 47.9220779,24 C47.9220779,23.5268571 47.8784416,23.0647792 47.851013,22.5983377 L36.4734545,22.5983377 Z" id="Path"></path>
                        <path d="M11.5265455,25.4016623 C11.474026,24.9353766 11.3848831,24.48 11.3848831,24 C11.3848831,23.52 11.474026,23.0646234 11.5265455,22.5983377 L0.148987013,22.5983377 C0.121558442,23.0647792 0.0779220779,23.5268571 0.0779220779,24 C0.0779220779,24.4731429 0.121558442,24.9352208 0.148987013,25.4016623 L11.5265455,25.4016623 Z" id="Path"></path>
                        <path d="M25.4016623,11.5265455 L25.4016623,0.148987013 C24.9352208,0.121558442 24.4731429,0.0779220779 24,0.0779220779 C23.5268571,0.0779220779 23.0647792,0.121558442 22.5983377,0.148987013 L22.5983377,11.5265455 C23.0646234,11.474026 23.52,11.3848831 24,11.3848831 C24.48,11.3848831 24.9353766,11.474026 25.4016623,11.5265455 Z" id="Path"></path>
                        <path d="M19.795013,12.1597403 L19.795013,0.472207792 C10.0252987,2.22187013 2.22202597,10.0251429 0.472363636,19.7948571 L12.1598961,19.7948571 C13.430026,16.2327273 16.2327273,13.430026 19.795013,12.1597403 Z" id="Path"></path>
                        <path d="M22.5983377,36.4734545 L22.5983377,47.851013 C23.0647792,47.8784416 23.5268571,47.9220779 24,47.9220779 C24.4731429,47.9220779 24.9352208,47.8784416 25.4016623,47.851013 L25.4016623,36.4734545 C24.9353766,36.525974 24.48,36.6151169 24,36.6151169 C23.52,36.6151169 23.0646234,36.525974 22.5983377,36.4734545 Z" id="Path"></path>
                        <path d="M47.5276364,28.204987 L35.8401039,28.204987 C34.5698182,31.7672727 31.7671169,34.5698182 28.204987,35.8401039 L28.204987,47.5276364 C37.9747013,45.777974 45.777974,37.9747013 47.5276364,28.204987 L47.5276364,28.204987 Z" id="Path"></path>
                        <path d="M19.795013,47.5276364 L19.795013,35.8401039 C16.2327273,34.5698182 13.4301818,31.7671169 12.1598961,28.204987 L0.472363636,28.204987 C2.22202597,37.9747013 10.0252987,45.777974 19.795013,47.5276364 L19.795013,47.5276364 Z" id="Path"></path>
                    </g>
                </g>
            </g>
        </g>
    </g>
</svg>